<svg viewBox="0 0 58 58" xmlns="http://www.w3.org/2000/svg" xml:space="preserve" style="fill-rule:evenodd;clip-rule:evenodd;stroke-linejoin:round;stroke-miterlimit:2"><path style="fill:#ecf0f1" d="M0 0h58v58H0z" transform="translate(10.767 10.767) scale(.62872)"/><path style="fill:#546a79" d="M0 0h58v12H0z" transform="translate(10.767 10.767) scale(.62872)"/><circle cx="6" cy="6" r="3" style="fill:#ed7161" transform="translate(10.767 10.767) scale(.62872)"/><circle cx="15" cy="6" r="3" style="fill:#f0c419" transform="translate(10.767 10.767) scale(.62872)"/><circle cx="24" cy="6" r="3" style="fill:#4fba6f" transform="translate(10.767 10.767) scale(.62872)"/><path style="fill:#8697cb" d="M5 17h48v36H5z" transform="translate(10.767 10.767) scale(.62872)"/><path d="M30 29h9a1 1 0 0 0 0-2h-9a1 1 0 0 0 0 2Zm18 8H30a1 1 0 0 0 0 2h18a1 1 0 0 0 0-2Zm-18-3h18a1 1 0 0 0 0-2H30a1 1 0 0 0 0 2Zm18 8H30a1 1 0 0 0 0 2h18a1 1 0 0 0 0-2Z" style="fill:#fff;fill-rule:nonzero" transform="translate(10.767 10.767) scale(.62872)"/><path style="fill:#556080" d="M9 27h18v17H9z" transform="translate(10.767 10.767) scale(.62872)"/></svg>