<?xml version="1.0" encoding="UTF-8" standalone="no"?>
<!DOCTYPE svg PUBLIC "-//W3C//DTD SVG 1.1//EN" "http://www.w3.org/Graphics/SVG/1.1/DTD/svg11.dtd">
<svg width="100%" height="100%" viewBox="0 0 58 58" version="1.1" xmlns="http://www.w3.org/2000/svg" xmlns:xlink="http://www.w3.org/1999/xlink" xml:space="preserve" xmlns:serif="http://www.serif.com/" style="fill-rule:evenodd;clip-rule:evenodd;stroke-linejoin:round;stroke-miterlimit:2;">
    <g transform="matrix(0.628724,0,0,0.628724,10.767,10.767)">
        <rect x="0" y="0" width="58" height="58" style="fill:rgb(236,240,241);"/>
    </g>
    <g transform="matrix(0.628724,0,0,0.628724,10.767,10.767)">
        <rect x="0" y="0" width="58" height="12" style="fill:rgb(84,106,121);"/>
    </g>
    <g transform="matrix(0.628724,0,0,0.628724,10.767,10.767)">
        <circle cx="6" cy="6" r="3" style="fill:rgb(237,113,97);"/>
    </g>
    <g transform="matrix(0.628724,0,0,0.628724,10.767,10.767)">
        <circle cx="15" cy="6" r="3" style="fill:rgb(240,196,25);"/>
    </g>
    <g transform="matrix(0.628724,0,0,0.628724,10.767,10.767)">
        <circle cx="24" cy="6" r="3" style="fill:rgb(79,186,111);"/>
    </g>
    <g transform="matrix(0.628724,0,0,0.628724,10.767,10.767)">
        <rect x="5" y="17" width="48" height="36" style="fill:rgb(134,151,203);"/>
    </g>
    <g>
        <g transform="matrix(0.628724,0,0,0.628724,10.767,10.767)">
            <path d="M30,29L39,29C39.552,29 40,28.552 40,28C40,27.448 39.552,27 39,27L30,27C29.448,27 29,27.448 29,28C29,28.552 29.448,29 30,29Z" style="fill:white;fill-rule:nonzero;"/>
        </g>
        <g transform="matrix(0.628724,0,0,0.628724,10.767,10.767)">
            <path d="M48,37L30,37C29.448,37 29,37.448 29,38C29,38.552 29.448,39 30,39L48,39C48.552,39 49,38.552 49,38C49,37.448 48.552,37 48,37Z" style="fill:white;fill-rule:nonzero;"/>
        </g>
        <g transform="matrix(0.628724,0,0,0.628724,10.767,10.767)">
            <path d="M30,34L48,34C48.552,34 49,33.552 49,33C49,32.448 48.552,32 48,32L30,32C29.448,32 29,32.448 29,33C29,33.552 29.448,34 30,34Z" style="fill:white;fill-rule:nonzero;"/>
        </g>
        <g transform="matrix(0.628724,0,0,0.628724,10.767,10.767)">
            <path d="M48,42L30,42C29.448,42 29,42.448 29,43C29,43.552 29.448,44 30,44L48,44C48.552,44 49,43.552 49,43C49,42.448 48.552,42 48,42Z" style="fill:white;fill-rule:nonzero;"/>
        </g>
    </g>
    <g transform="matrix(0.628724,0,0,0.628724,10.767,10.767)">
        <rect x="9" y="27" width="18" height="17" style="fill:rgb(85,96,128);"/>
    </g>
</svg>
