<svg height="800" width="800" viewBox="-19.504 -32.497 112.687 194.983" xmlns:xlink="http://www.w3.org/1999/xlink" xmlns="http://www.w3.org/2000/svg"><defs><radialGradient fy="578.088" fx="158.429" gradientTransform="matrix(0 -1.65111 1.53608 0 -883.03 382.765)" gradientUnits="userSpaceOnUse" xlink:href="#a" r="65" cy="578.088" cx="158.429" id="c"/><radialGradient fy="473.455" fx="147.694" gradientTransform="matrix(.1449 .7237 -2.98386 .59746 1349.367 -377.401)" gradientUnits="userSpaceOnUse" xlink:href="#b" r="65" cy="473.455" cx="147.694" id="d"/><linearGradient id="b"><stop stop-color="#3771c8" offset="0"/><stop offset=".128" stop-color="#3771c8"/><stop stop-opacity="0" stop-color="#60f" offset="1"/></linearGradient><linearGradient id="a"><stop stop-color="#fd5" offset="0"/><stop stop-color="#fd5" offset=".1"/><stop stop-color="#ff543e" offset=".5"/><stop stop-color="#c837ab" offset="1"/></linearGradient></defs><path d="M30.365 4.552c-22.61 0-29.224.023-30.509.13-4.64.385-7.528 1.116-10.673 2.682-2.424 1.204-4.336 2.6-6.223 4.555-3.437 3.567-5.52 7.956-6.273 13.173-.367 2.532-.473 3.049-.495 15.984-.008 4.312 0 9.987 0 17.599 0 22.593.025 29.199.133 30.482.375 4.515 1.083 7.356 2.583 10.463 2.866 5.948 8.339 10.413 14.787 12.08 2.232.574 4.698.89 7.864 1.04 1.341.059 15.012.1 28.69.1 13.68 0 27.358-.016 28.666-.083 3.666-.172 5.794-.458 8.147-1.066A22.676 22.676 0 0 0 81.85 99.587c1.47-3.033 2.216-5.982 2.554-10.261.073-.933.104-15.81.104-30.665 0-14.859-.034-29.707-.107-30.64-.342-4.349-1.087-7.273-2.605-10.363-1.245-2.53-2.628-4.42-4.636-6.352-3.582-3.422-7.964-5.505-13.187-6.258-2.53-.365-3.034-.474-15.98-.496Z" fill="url(#c)" style="fill:url(#c);stroke-width:.833062" transform="translate(6.493 6.298)"/><path d="M30.365 4.552c-22.61 0-29.224.023-30.509.13-4.64.385-7.528 1.116-10.673 2.682-2.424 1.204-4.336 2.6-6.223 4.555-3.437 3.567-5.52 7.956-6.273 13.173-.367 2.532-.473 3.049-.495 15.984-.008 4.312 0 9.987 0 17.599 0 22.593.025 29.199.133 30.482.375 4.515 1.083 7.356 2.583 10.463 2.866 5.948 8.339 10.413 14.787 12.08 2.232.574 4.698.89 7.864 1.04 1.341.059 15.012.1 28.69.1 13.68 0 27.358-.016 28.666-.083 3.666-.172 5.794-.458 8.147-1.066A22.676 22.676 0 0 0 81.85 99.587c1.47-3.033 2.216-5.982 2.554-10.261.073-.933.104-15.81.104-30.665 0-14.859-.034-29.707-.107-30.64-.342-4.349-1.087-7.273-2.605-10.363-1.245-2.53-2.628-4.42-4.636-6.352-3.582-3.422-7.964-5.505-13.187-6.258-2.53-.365-3.034-.474-15.98-.496Z" fill="url(#d)" style="fill:url(#d);stroke-width:.833062" transform="translate(6.493 6.298)"/><path d="M30.35 18.71c-10.86 0-12.222.047-16.488.24-4.257.196-7.162.87-9.705 1.859-2.63 1.02-4.86 2.387-7.083 4.61-2.225 2.223-3.59 4.454-4.615 7.083-.992 2.544-1.667 5.45-1.858 9.705-.19 4.266-.24 5.63-.24 16.49 0 10.859.048 12.218.242 16.483.195 4.257.87 7.163 1.857 9.705 1.022 2.63 2.389 4.861 4.612 7.084 2.222 2.224 4.453 3.594 7.081 4.615 2.544.989 5.45 1.663 9.707 1.858 4.265.194 5.627.241 16.486.241 10.86 0 12.22-.047 16.485-.241 4.257-.195 7.166-.87 9.71-1.858 2.63-1.021 4.857-2.391 7.079-4.615 2.224-2.223 3.59-4.454 4.615-7.083.983-2.543 1.658-5.45 1.857-9.705.192-4.265.242-5.625.242-16.485s-.05-12.222-.242-16.488c-.2-4.257-.874-7.162-1.857-9.705-1.025-2.63-2.391-4.86-4.615-7.083-2.225-2.225-4.449-3.591-7.081-4.611-2.55-.99-5.457-1.663-9.714-1.858-4.265-.194-5.623-.242-16.486-.242zm-3.587 7.205h3.587c10.677 0 11.942.039 16.158.23 3.9.178 6.015.83 7.425 1.377 1.866.725 3.196 1.591 4.595 2.99 1.4 1.4 2.266 2.733 2.992 4.6.548 1.407 1.2 3.523 1.377 7.422.192 4.215.234 5.481.234 16.153 0 10.672-.042 11.938-.234 16.153-.178 3.899-.83 6.015-1.377 7.423-.725 1.866-1.593 3.194-2.992 4.593-1.4 1.4-2.728 2.266-4.595 2.99-1.408.55-3.526 1.2-7.425 1.379-4.215.191-5.481.233-16.158.233-10.677 0-11.942-.042-16.158-.233-3.898-.18-6.014-.832-7.425-1.379-1.866-.725-3.199-1.591-4.598-2.99-1.4-1.4-2.266-2.73-2.993-4.597-.547-1.408-1.2-3.524-1.377-7.422-.191-4.216-.23-5.482-.23-16.16s.039-11.938.23-16.153c.179-3.899.83-6.015 1.377-7.424.725-1.866 1.594-3.2 2.994-4.6 1.4-1.4 2.732-2.266 4.598-2.992 1.41-.55 3.527-1.2 7.425-1.379 3.69-.166 5.119-.216 12.571-.225zm24.932 6.64a4.798 4.798 0 1 0 4.799 4.796 4.8 4.8 0 0 0-4.799-4.798zM30.35 38.16c-11.34 0-20.535 9.195-20.535 20.535S19.01 79.227 30.35 79.227s20.533-9.19 20.533-20.53c0-11.341-9.193-20.536-20.533-20.536zm0 7.206c7.361 0 13.33 5.967 13.33 13.33 0 7.36-5.969 13.328-13.33 13.328s-13.329-5.968-13.329-13.329c0-7.362 5.968-13.329 13.33-13.329z" fill="#fff" style="stroke-width:.833062" transform="translate(6.493 6.298)"/></svg>