<svg viewBox="0 0 300 301" xmlns="http://www.w3.org/2000/svg" xml:space="preserve" style="fill-rule:evenodd;clip-rule:evenodd;stroke-linejoin:round;stroke-miterlimit:2"><path d="M204.996 67.141H95.245c-17.233-.022-31.385 13.398-31.41 29.974v105.542c-.022 16.578 13.934 30.189 31.169 30.21h109.752c17.236.021 31.383-13.397 31.409-29.977V97.346c.024-16.577-13.93-30.182-31.169-30.205" style="fill:#06c755;fill-rule:nonzero"/><path d="M212.464 142.717c0-26.999-28.146-48.964-62.744-48.964-34.594 0-62.743 21.965-62.743 48.964 0 24.205 22.321 44.476 52.473 48.309 2.044.423 4.824 1.295 5.528 2.975.633 1.526.414 3.915.202 5.456 0 0-.736 4.258-.895 5.164-.273 1.526-1.26 5.967 5.435 3.253 6.697-2.713 36.134-20.46 49.298-35.031h-.003c9.093-9.589 13.449-19.32 13.449-30.126" style="fill:#fff;fill-rule:nonzero"/><path d="M136.972 129.67h-4.401c-.675 0-1.224.527-1.224 1.173v26.292c0 .647.549 1.172 1.224 1.172h4.401c.675 0 1.222-.525 1.222-1.172v-26.292c0-.646-.547-1.173-1.222-1.173m30.292 0h-4.401c-.675 0-1.222.527-1.222 1.173v15.62l-12.528-16.271a1.376 1.376 0 0 0-.095-.119l-.009-.007a1.005 1.005 0 0 0-.073-.073l-.023-.02a.87.87 0 0 0-.065-.052l-.031-.024c-.022-.014-.042-.029-.064-.042a.19.19 0 0 0-.037-.02c-.022-.013-.044-.026-.065-.036-.013-.006-.025-.013-.039-.018-.023-.01-.045-.02-.069-.029l-.04-.013a.452.452 0 0 0-.074-.022c-.013-.005-.027-.007-.042-.012a3.91 3.91 0 0 1-.069-.015l-.052-.006a.72.72 0 0 0-.065-.008c-.02-.002-.041-.002-.063-.003-.015 0-.027-.003-.043-.003h-4.4c-.674 0-1.223.527-1.223 1.173v26.292c0 .647.549 1.172 1.223 1.172h4.4c.676 0 1.223-.525 1.223-1.172v-15.616l12.544 16.292c.087.118.194.214.311.29l.012.01.076.044.034.017c.018.01.039.02.058.028l.06.024.036.013.083.026c.006 0 .012.003.018.004.1.025.205.04.313.04h4.401c.676 0 1.222-.525 1.222-1.172v-26.292c0-.646-.546-1.173-1.222-1.173m-40.901 22.054h-11.958v-20.879c0-.649-.548-1.175-1.221-1.175h-4.402c-.675 0-1.222.526-1.222 1.175v26.289a1.147 1.147 0 0 0 .358.829l.018.016c.22.204.516.329.844.329h17.583c.675 0 1.22-.528 1.22-1.176v-4.233c0-.649-.545-1.175-1.22-1.175m65.205-15.471c.675 0 1.22-.525 1.22-1.175v-4.232c0-.649-.545-1.176-1.22-1.176h-17.583c-.33 0-.627.127-.847.332l-.015.012-.019.021a1.147 1.147 0 0 0-.339.81v26.289a1.144 1.144 0 0 0 .376.845c.219.203.516.329.844.329h17.583c.675 0 1.22-.528 1.22-1.175v-4.234c0-.648-.545-1.175-1.22-1.175h-11.957v-4.444h11.957c.675 0 1.22-.526 1.22-1.175v-4.232c0-.649-.545-1.177-1.22-1.177h-11.957v-4.443h11.957Z" style="fill:#06c755;fill-rule:nonzero"/></svg>