<svg viewBox="0 0 2500 2500" xmlns="http://www.w3.org/2000/svg" xml:space="preserve" style="fill-rule:evenodd;clip-rule:evenodd;stroke-linejoin:round;stroke-miterlimit:2"><path style="fill:#010101" d="M0 0h2500v2500H0z"/><path d="M1499.35 2068.68c59.312 0 107.396-47.695 107.396-106.523 0-58.828-48.084-106.53-107.396-106.53h-16.179c59.312 0 107.396 47.702 107.396 106.53s-48.084 106.523-107.396 106.523h16.179Z" style="fill:#ee1d51"/><path d="M1481.7 1855.63h-16.178c-59.312 0-107.404 47.702-107.404 106.53s48.092 106.523 107.404 106.523h16.178c-59.319 0-107.403-47.695-107.403-106.523 0-58.828 48.084-106.53 107.403-106.53Z" style="fill:#66c8cf"/><ellipse cx="1482.44" cy="1962.16" rx="52.232" ry="51.795" style="fill:#010101"/><path d="M665.225 1807.49v53.994h63.25v205.747h63.272v-204.289h51.484l17.652-55.452H665.225Zm517.838 0v53.994h63.249v205.747h63.273v-204.289h51.483l17.653-55.452h-195.658Zm-310.399 30.642c0-16.919 13.809-30.642 30.869-30.642 17.075 0 30.899 13.723 30.899 30.642 0 16.92-13.816 30.643-30.899 30.643-17.06-.008-30.869-13.723-30.869-30.643Zm0 52.537h61.768v176.562h-61.768v-176.562Zm88.255-83.179v259.741h61.791v-67.116l19.126-17.528 60.31 86.103h66.196l-86.804-125.493 77.97-75.888h-75.023l-61.775 61.284V1807.49h-61.791Zm666.409 0v259.741h61.799v-67.116l19.118-17.528 60.325 86.103h66.205l-86.804-125.493 77.97-75.888h-75.023l-61.791 61.284V1807.49h-61.799Z" style="fill:#fff"/><path d="M1531.99 908.382c85.33 60.965 189.872 96.839 302.773 96.839V788.067a306.164 306.164 0 0 1-63.585-6.651V952.35c-112.892 0-217.419-35.874-302.773-96.839v443.142c0 221.684-179.798 401.382-401.584 401.382-82.749 0-159.667-25.005-223.563-67.889 72.925 74.524 174.621 120.76 287.132 120.76 221.801 0 401.608-179.697 401.608-401.389V908.382h-.008Zm78.438-219.08c-43.609-47.616-72.239-109.157-78.438-177.194v-27.929h-60.255c15.165 86.469 66.898 160.345 138.693 205.123Zm-626.894 772.737a182.834 182.834 0 0 1-37.473-111.154c0-101.392 82.243-183.596 183.705-183.596a183.992 183.992 0 0 1 55.725 8.601V953.886a405.212 405.212 0 0 0-63.561-3.657v172.797a184.143 184.143 0 0 0-55.748-8.6c-101.462 0-183.697 82.204-183.697 183.603 0 71.694 41.105 133.774 101.049 164.01Z" style="fill:#ee1d52"/><path d="M1468.41 855.511c85.354 60.965 189.881 96.839 302.773 96.839V781.416c-63.015-13.411-118.802-46.33-160.75-92.114-71.795-44.778-123.528-118.654-138.693-205.123h-158.271v867.33c-.359 101.112-82.461 182.98-183.705 182.98-59.663 0-112.667-28.42-146.233-72.45-59.943-30.236-101.049-92.316-101.049-164.01 0-101.399 82.235-183.603 183.697-183.603 19.438 0 38.174 3.025 55.749 8.6V950.229c-217.887 4.499-393.125 182.442-393.125 401.288 0 109.244 43.64 208.281 114.46 280.637 63.896 42.884 140.814 67.889 223.563 67.889 221.786 0 401.584-179.706 401.584-401.382v-443.15Z" style="fill:#fff"/><path d="M1771.18 781.416v-46.22a302.87 302.87 0 0 1-160.75-45.901 303.718 303.718 0 0 0 160.75 92.121Zm-299.443-297.237a308.05 308.05 0 0 1-3.33-24.935v-27.929h-218.534v867.338c-.351 101.104-82.445 182.972-183.697 182.972-29.73 0-57.791-7.048-82.648-19.586 33.566 44.03 86.57 72.45 146.233 72.45 101.236 0 183.346-81.868 183.705-182.98v-867.33h158.271Zm-349.805 466.05v-49.207a405.232 405.232 0 0 0-55.101-3.735c-221.809 0-401.608 179.705-401.608 401.366 0 138.974 70.665 261.449 178.045 333.493-70.82-72.356-114.46-171.393-114.46-280.637 0-218.838 175.23-396.781 393.124-401.28Z" style="fill:#69c9d0"/><path d="M1483.16 2068.68c59.312 0 107.404-47.695 107.404-106.523 0-58.828-48.092-106.53-107.404-106.53h-1.465c-59.312 0-107.396 47.702-107.396 106.53s48.084 106.523 107.396 106.523h1.465Zm-52.957-106.523c0-28.615 23.391-51.795 52.24-51.795 28.826 0 52.217 23.18 52.217 51.795 0 28.615-23.391 51.811-52.217 51.811-28.849-.008-52.24-23.196-52.24-51.811Z" style="fill:#fff"/></svg>