<?xml version="1.0" encoding="UTF-8" standalone="no"?><!DOCTYPE svg PUBLIC "-//W3C//DTD SVG 1.1//EN" "http://www.w3.org/Graphics/SVG/1.1/DTD/svg11.dtd"><svg width="100%" height="100%" viewBox="0 0 2500 2500" version="1.1" xmlns="http://www.w3.org/2000/svg" xmlns:xlink="http://www.w3.org/1999/xlink" xml:space="preserve" xmlns:serif="http://www.serif.com/" style="fill-rule:evenodd;clip-rule:evenodd;stroke-linejoin:round;stroke-miterlimit:2;"><g><path d="M0,0l2500,0l0,2500l-2500,0c0,0 0,-2638.08 0,-2500Z" style="fill:#010101;"/><path d="M1569.8,2300c76.07,0 137.74,-61.17 137.74,-136.62c0,-75.45 -61.67,-136.63 -137.74,-136.63l-20.75,-0c76.07,-0 137.74,61.18 137.74,136.63c0,75.45 -61.67,136.62 -137.74,136.62l20.75,0Z" style="fill:#ee1d51;"/><path d="M1547.17,2026.75l-20.75,0c-76.07,0 -137.75,61.18 -137.75,136.63c0,75.45 61.68,136.62 137.75,136.62l20.75,0c-76.08,0 -137.75,-61.17 -137.75,-136.62c-0,-75.45 61.67,-136.63 137.75,-136.63Z" style="fill:#66c8cf;"/><ellipse cx="1548.11" cy="2163.38" rx="66.99" ry="66.43" style="fill:#010101;"/><path d="M500,1965l0,69.25l81.12,0l0,263.88l81.15,0l0,-262.01l66.03,0l22.64,-71.12l-250.94,0Zm664.15,0l0,69.25l81.12,0l0,263.88l81.15,0l0,-262.01l66.03,0l22.64,-71.12l-250.94,0Zm-398.1,39.3c0,-21.7 17.71,-39.3 39.59,-39.3c21.9,0 39.63,17.6 39.63,39.3c-0,21.7 -17.72,39.3 -39.63,39.3c-21.88,-0.01 -39.59,-17.6 -39.59,-39.3Zm0,67.38l79.22,0l-0,226.45l-79.22,0l0,-226.45Zm113.19,-106.68l0,333.13l79.25,0l0,-86.08l24.53,-22.48l77.35,110.43l84.9,0l-111.33,-160.95l100,-97.33l-96.22,0l-79.23,78.6l0,-155.32l-79.25,0Zm854.7,0l0,333.13l79.26,0l-0,-86.08l24.52,-22.48l77.37,110.43l84.91,0l-111.33,-160.95l100,-97.33l-96.22,0l-79.25,78.6l-0,-155.32l-79.26,0Z" style="fill:#fff;"/><path d="M1611.67,811.86c109.44,78.19 243.52,124.2 388.32,124.2l0,-278.51c-27.406,0.011 -54.739,-2.848 -81.55,-8.53l0,219.23c-144.79,-0 -278.85,-46.01 -388.32,-124.2l-0,568.35c-0,284.32 -230.6,514.79 -515.05,514.79c-106.13,0 -204.78,-32.07 -286.73,-87.07c93.53,95.58 223.96,154.88 368.26,154.88c284.47,0 515.08,-230.47 515.08,-514.8l-0,-568.34l-0.01,0Zm100.6,-280.98c-55.93,-61.07 -92.65,-140 -100.6,-227.26l-0,-35.82l-77.28,0c19.45,110.9 85.8,205.65 177.88,263.08Zm-804.02,991.07c-31.24,-40.943 -48.135,-91.06 -48.06,-142.56c-0,-130.04 105.48,-235.47 235.61,-235.47c24.248,-0.017 48.355,3.704 71.47,11.03l-0,-284.73c-27.008,-3.699 -54.266,-5.267 -81.52,-4.69l-0,221.62c-23.125,-7.327 -47.242,-11.047 -71.5,-11.03c-130.13,0 -235.6,105.43 -235.6,235.48c-0,91.95 52.72,171.57 129.6,210.35Z" style="fill:#ee1d52;"/><path d="M1530.12,744.05c109.47,78.19 243.53,124.2 388.32,124.2l0,-219.23c-80.82,-17.2 -152.37,-59.42 -206.17,-118.14c-92.08,-57.43 -158.43,-152.18 -177.88,-263.08l-202.99,-0l0,1112.39c-0.46,129.68 -105.76,234.68 -235.61,234.68c-76.52,-0 -144.5,-36.45 -187.55,-92.92c-76.88,-38.78 -129.6,-118.4 -129.6,-210.35c-0,-130.05 105.47,-235.48 235.6,-235.48c24.93,-0 48.96,3.88 71.5,11.03l-0,-221.62c-279.45,5.77 -504.2,233.99 -504.2,514.67c-0,140.11 55.97,267.13 146.8,359.93c81.95,55 180.6,87.07 286.73,87.07c284.45,-0 515.05,-230.48 515.05,-514.79l0,-568.36Z" style="fill:#fff;"/><path d="M1918.44,649.02l0,-59.28c-72.879,0.11 -144.338,-20.295 -206.17,-58.87c54.73,59.889 126.829,101.207 206.17,118.15Zm-384.05,-381.22c-1.858,-10.597 -3.283,-21.266 -4.27,-31.98l-0,-35.82l-280.28,0l0,1112.4c-0.45,129.67 -105.74,234.67 -235.6,234.67c-38.13,-0 -74.12,-9.04 -106,-25.12c43.05,56.47 111.03,92.92 187.55,92.92c129.84,-0 235.15,-105 235.61,-234.68l0,-1112.39l202.99,-0Zm-448.64,597.73l0,-63.11c-23.42,-3.202 -47.032,-4.802 -70.67,-4.79c-284.48,-0 -515.08,230.48 -515.08,514.77c0,178.24 90.63,335.32 228.35,427.72c-90.83,-92.8 -146.8,-219.82 -146.8,-359.93c0,-280.67 224.74,-508.89 504.2,-514.66Z" style="fill:#69c9d0;"/><path d="M1549.04,2300c76.07,0 137.75,-61.17 137.75,-136.62c0,-75.45 -61.68,-136.63 -137.75,-136.63l-1.88,-0c-76.07,-0 -137.74,61.18 -137.74,136.63c0,75.45 61.67,136.62 137.74,136.62l1.88,0Zm-67.92,-136.62c0,-36.7 30,-66.43 67,-66.43c36.97,-0 66.97,29.73 66.97,66.43c0,36.7 -30,66.45 -66.97,66.45c-37,-0.01 -67,-29.75 -67,-66.45Z" style="fill:#fff;"/></g></svg>