<svg viewBox="0 0 248 204" xmlns="http://www.w3.org/2000/svg" xml:space="preserve" style="fill-rule:evenodd;clip-rule:evenodd;stroke-linejoin:round;stroke-miterlimit:2"><path style="fill:#1d9bf0" d="M4.44 2.631h239.449V199.56H4.44z"/><path d="M248 0H0v204h248V0Zm-71.7 75.168c.08 1.16.08 2.319.08 3.489 0 35.658-27.145 76.782-76.781 76.782v-.021a76.401 76.401 0 0 1-41.365-12.098c2.132.256 4.275.385 6.423.39a54.191 54.191 0 0 0 33.515-11.574 27.018 27.018 0 0 1-25.211-18.74c4.045.78 8.213.62 12.183-.465-12.589-2.544-21.646-13.605-21.646-26.451v-.342a26.801 26.801 0 0 0 12.247 3.377c-11.857-7.924-15.512-23.698-8.352-36.031a76.589 76.589 0 0 0 55.616 28.192 27 27 0 0 1 7.807-25.782c10.869-10.217 27.963-9.693 38.179 1.17a54.158 54.158 0 0 0 17.137-6.551 27.081 27.081 0 0 1-11.862 14.924 53.646 53.646 0 0 0 15.496-4.248A54.822 54.822 0 0 1 176.3 75.168Z" style="fill:#fff"/></svg>